<svg width="26" height="28" viewBox="0 0 26 28" fill="none" xmlns="http://www.w3.org/2000/svg">
<path d="M21.7812 0C20.315 0 19.125 1.19 19.125 2.65625V24.9687C19.125 26.435 20.315 27.625 21.7812 27.625H22.8437C24.31 27.625 25.5 26.435 25.5 24.9687V2.65625C25.5 1.18858 24.31 0 22.8437 0H21.7812ZM9.56249 9.03124C9.56249 7.56358 10.7525 6.37499 12.2187 6.37499H13.2812C14.7489 6.37499 15.9375 7.56499 15.9375 9.03124V24.9687C15.9375 26.435 14.7475 27.625 13.2812 27.625H12.2187C11.5143 27.625 10.8386 27.3451 10.3405 26.847C9.84234 26.3488 9.56249 25.6732 9.56249 24.9687V9.03124ZM0 15.4062C0 13.9386 1.19 12.75 2.65625 12.75H3.71875C5.18641 12.75 6.37499 13.94 6.37499 15.4062V24.9687C6.37499 26.435 5.18499 27.625 3.71875 27.625H2.65625C1.95177 27.625 1.27614 27.3451 0.777997 26.847C0.279854 26.3488 0 25.6732 0 24.9687V15.4062Z" fill="white"/>
</svg>
