<svg width="35" height="35" viewBox="0 0 35 35" fill="none" xmlns="http://www.w3.org/2000/svg">
<path d="M30.0002 9.10711C30.0002 12.9528 24.243 16.0714 17.143 16.0714C10.043 16.0714 4.28589 12.9528 4.28589 9.10711C4.28589 5.26139 10.043 2.14282 17.143 2.14282C24.243 2.14282 30.0002 5.26139 30.0002 9.10711Z" fill="white"/>
<path d="M17.143 18.2144C20.9787 18.2144 24.5573 17.3773 27.2545 15.9159C28.2471 15.3889 29.1596 14.7231 29.9645 13.9387C29.9873 14.1116 30.0002 14.2873 30.0002 14.4644C30.0002 18.3101 24.243 21.4287 17.143 21.4287C10.043 21.4287 4.28589 18.3101 4.28589 14.4644C4.28589 14.2873 4.29875 14.1116 4.3216 13.9387C5.12648 14.7231 6.03898 15.3888 7.0316 15.9159C9.72732 17.3773 13.3073 18.2144 17.143 18.2144Z" fill="white"/>
<path d="M17.143 23.5716C20.9787 23.5716 24.5573 22.7345 27.2545 21.273C28.2471 20.7461 29.1596 20.0803 29.9645 19.2959C29.9873 19.4688 30.0002 19.6445 30.0002 19.8216C30.0002 23.6673 24.243 26.7859 17.143 26.7859C10.043 26.7859 4.28589 23.6673 4.28589 19.8216C4.28589 19.6445 4.29875 19.4688 4.3216 19.2959C5.12647 20.0803 6.03897 20.746 7.0316 21.273C9.72732 22.7345 13.3073 23.5716 17.143 23.5716Z" fill="white"/>
<path d="M17.143 28.9285C20.9787 28.9285 24.5573 28.0914 27.2545 26.63C28.2471 26.103 29.1596 25.4372 29.9645 24.6528C29.9873 24.8257 30.0002 25.0014 30.0002 25.1785C30.0002 29.0243 24.243 32.1428 17.143 32.1428C10.043 32.1428 4.28589 29.0243 4.28589 25.1785C4.28589 25.0014 4.29875 24.8257 4.3216 24.6528C5.12647 25.4372 6.03897 26.103 7.0316 26.63C9.72732 28.0914 13.3073 28.9285 17.143 28.9285Z" fill="white"/>
</svg>
