<svg width="24" height="24" viewBox="0 0 24 24" fill="none" xmlns="http://www.w3.org/2000/svg">
<path d="M1.75879 12.322C1.68978 12.1146 1.68978 11.8904 1.75879 11.683C3.14579 7.51 7.08279 4.5 11.7228 4.5C16.3608 4.5 20.2958 7.507 21.6858 11.678C21.7558 11.885 21.7558 12.109 21.6858 12.317C20.2998 16.49 16.3628 19.5 11.7228 19.5C7.08479 19.5 3.14879 16.493 1.75879 12.322Z" stroke="white" stroke-linecap="round" stroke-linejoin="round"/>
<path d="M14.7227 12C14.7227 12.7956 14.4066 13.5587 13.844 14.1213C13.2814 14.6839 12.5183 15 11.7227 15C10.927 15 10.1639 14.6839 9.60134 14.1213C9.03873 13.5587 8.72266 12.7956 8.72266 12C8.72266 11.2044 9.03873 10.4413 9.60134 9.87868C10.1639 9.31607 10.927 9 11.7227 9C12.5183 9 13.2814 9.31607 13.844 9.87868C14.4066 10.4413 14.7227 11.2044 14.7227 12Z" stroke="white" stroke-linecap="round" stroke-linejoin="round"/>
</svg>
