<svg width="15" height="15" viewBox="0 0 15 15" fill="none" xmlns="http://www.w3.org/2000/svg">
<path d="M14.625 11.25L10.875 15L8.25 12.375L9.375 11.25L10.875 12.75L13.5 10.125L14.625 11.25ZM1.5 0C0.6675 0 0 0.6675 0 1.5V13.5C0 14.3325 0.6675 15 1.5 15H7.3575C6.96 14.3175 6.75 13.5375 6.75 12.75C6.75 12.5025 6.7725 12.2475 6.81 12H1.5V10.5H7.3575C7.7025 9.9 8.1825 9.375 8.76 9H1.5V7.5H10.5V8.31C10.7475 8.2725 11.0025 8.25 11.25 8.25C11.505 8.25 11.7525 8.2725 12 8.31V4.5L7.5 0M6.75 1.125L10.875 5.25H6.75V1.125Z" fill="white"/>
</svg>
