<svg width="29" height="29" viewBox="0 0 29 29" fill="none" xmlns="http://www.w3.org/2000/svg">
<path d="M14.25 27.75C17.2425 27.7498 20.1502 26.7558 22.5165 24.924C24.8829 23.0923 26.5739 20.5265 27.324 17.6295M14.25 27.75C11.2575 27.7498 8.34981 26.7558 5.98346 24.924C3.61711 23.0923 1.92612 20.5265 1.17601 17.6295M14.25 27.75C17.9775 27.75 21 21.705 21 14.25C21 6.795 17.9775 0.750001 14.25 0.750001M14.25 27.75C10.5225 27.75 7.50001 21.705 7.50001 14.25C7.50001 6.795 10.5225 0.750001 14.25 0.750001M27.324 17.6295C27.6015 16.5495 27.75 15.417 27.75 14.25C27.7537 11.9282 27.1558 9.64498 26.0145 7.623M27.324 17.6295C23.3238 19.8471 18.8238 21.0072 14.25 21C9.50701 21 5.05051 19.7775 1.17601 17.6295M1.17601 17.6295C0.892126 16.5255 0.748991 15.39 0.750005 14.25C0.750005 11.8425 1.38001 9.5805 2.48551 7.623M14.25 0.750001C16.6444 0.749002 18.9959 1.38504 21.0633 2.59285C23.1307 3.80066 24.8395 5.53675 26.0145 7.623M14.25 0.750001C11.8556 0.749002 9.50412 1.38504 7.43672 2.59285C5.36931 3.80066 3.66046 5.53675 2.48551 7.623M26.0145 7.623C22.7485 10.4519 18.5708 12.0062 14.25 12C9.75301 12 5.64001 10.35 2.48551 7.623" stroke="url(#paint0_radial_128_447)" stroke-width="1.5" stroke-linecap="round" stroke-linejoin="round"/>
<defs>
<radialGradient id="paint0_radial_128_447" cx="0" cy="0" r="1" gradientTransform="matrix(9.0942 70.2075 46.1968 -13.8343 -0.572353 -29.5864)" gradientUnits="userSpaceOnUse">
<stop stop-color="#1BA1E3"/>
<stop offset="0.3" stop-color="#5489D6"/>
<stop offset="0.545" stop-color="#9B72CB"/>
<stop offset="0.825" stop-color="#D96570"/>
<stop offset="1" stop-color="#F49C46"/>
</radialGradient>
</defs>
</svg>
