<svg width="180" height="36" viewBox="0 0 180 36" fill="none" xmlns="http://www.w3.org/2000/svg">
<path d="M44.7576 24.2449V7.78775H51.0701C51.9634 7.78775 52.7707 8.0111 53.4916 8.45779C54.2126 8.90449 54.7847 9.504 55.2079 10.2563C55.631 11.0008 55.8426 11.8276 55.8426 12.7367C55.8426 13.4811 55.7055 14.1669 55.4312 14.7938C55.1647 15.4129 54.7886 15.9497 54.3027 16.4042C53.8246 16.8588 53.2722 17.2036 52.6452 17.4387L56.5832 24.2449H53.28L49.4714 17.6973H47.6258V24.2449H44.7576ZM47.6258 14.8291H50.7409C51.1485 14.8291 51.5206 14.7272 51.8577 14.5234C52.1947 14.3197 52.465 14.0454 52.6688 13.7006C52.8725 13.3558 52.9744 12.9718 52.9744 12.5486C52.9744 12.1175 52.8725 11.7296 52.6688 11.3848C52.465 11.04 52.1947 10.7657 51.8577 10.562C51.5206 10.3582 51.1485 10.2563 50.7409 10.2563H47.6258V14.8291ZM58.4872 12.4898H61.3554V24.2449H58.4872V12.4898ZM59.9448 10.9734C59.5216 10.9734 59.1651 10.8362 58.8751 10.562C58.5851 10.2798 58.4401 9.92718 58.4401 9.504C58.4401 9.08868 58.5851 8.73992 58.8751 8.45779C59.1651 8.17567 59.5177 8.03461 59.933 8.03461C60.3484 8.03461 60.6971 8.17567 60.9792 8.45779C61.2692 8.73992 61.4142 9.08868 61.4142 9.504C61.4142 9.92718 61.2731 10.2798 60.991 10.562C60.7089 10.8362 60.3601 10.9734 59.9448 10.9734ZM67.4651 24.4565C66.8539 24.4173 66.2622 24.2958 65.6901 24.0921C65.1259 23.8805 64.6243 23.5945 64.1854 23.234C63.7466 22.8734 63.4096 22.4425 63.1745 21.9409L65.5961 20.9064C65.6901 21.0632 65.8429 21.2317 66.0545 21.4119C66.2661 21.5843 66.5169 21.7293 66.8068 21.8469C67.1046 21.9644 67.4299 22.0232 67.7825 22.0232C68.0803 22.0232 68.3624 21.984 68.6289 21.9056C68.9031 21.8195 69.1226 21.6901 69.2872 21.5177C69.4596 21.3453 69.5458 21.1219 69.5458 20.8477C69.5458 20.5577 69.4439 20.3343 69.2401 20.1776C69.0442 20.0131 68.7934 19.8916 68.4878 19.8132C68.19 19.727 67.9001 19.6487 67.6179 19.5781C66.8735 19.4292 66.1799 19.1981 65.5373 18.8846C64.9025 18.5711 64.3892 18.1675 63.9974 17.6738C63.6133 17.1722 63.4214 16.5688 63.4214 15.8635C63.4214 15.0877 63.6251 14.4176 64.0326 13.8534C64.448 13.2891 64.9848 12.8542 65.6431 12.5486C66.3092 12.2429 67.0263 12.0901 67.7943 12.0901C68.7268 12.0901 69.581 12.2861 70.3569 12.6779C71.1406 13.0619 71.7596 13.6065 72.2142 14.3118L69.9454 15.6519C69.8358 15.4638 69.6829 15.2914 69.487 15.1347C69.2911 14.9701 69.0677 14.8369 68.817 14.735C68.5662 14.6253 68.3036 14.5626 68.0294 14.5469C67.6767 14.5313 67.3554 14.5626 67.0654 14.641C66.7755 14.7194 66.5404 14.8526 66.3601 15.0407C66.1877 15.2287 66.1015 15.4795 66.1015 15.793C66.1015 16.0907 66.2191 16.3141 66.4542 16.463C66.6893 16.6041 66.9714 16.7138 67.3006 16.7922C67.6376 16.8706 67.9588 16.9567 68.2645 17.0508C68.9541 17.278 69.6007 17.5562 70.2041 17.8854C70.8153 18.2145 71.3051 18.6181 71.6734 19.0962C72.0417 19.5742 72.2181 20.1463 72.2024 20.8124C72.2024 21.5726 71.9752 22.2387 71.5206 22.8108C71.0661 23.375 70.4783 23.8061 69.7574 24.1038C69.0442 24.4016 68.2801 24.5192 67.4651 24.4565ZM84.7117 24.2449H81.4085L78.7283 19.6251L77.0826 21.5882V24.2449H74.2144V6.61224H77.0826V17.1331L80.9736 12.4898H84.7234L80.6914 17.2976L84.7117 24.2449ZM98.3682 24.5505C97.4594 24.5505 96.5858 24.4095 95.7468 24.1273C94.9166 23.8374 94.1878 23.4259 93.5603 22.8931C92.9337 22.3523 92.4833 21.7058 92.2085 20.9535L94.9004 19.966C95.0106 20.2795 95.234 20.5655 95.5705 20.8242C95.9077 21.0828 96.3191 21.2905 96.8047 21.4472C97.2911 21.6039 97.812 21.6823 98.3682 21.6823C98.9405 21.6823 99.4732 21.5961 99.9669 21.4237C100.469 21.2435 100.872 20.9966 101.178 20.6831C101.483 20.3618 101.636 19.9895 101.636 19.5664C101.636 19.1353 101.476 18.7827 101.154 18.5084C100.833 18.2263 100.422 18.0029 99.9199 17.8384C99.4188 17.6738 98.9016 17.5484 98.3682 17.4622C97.2008 17.282 96.1545 17.0038 95.2296 16.6276C94.3053 16.2514 93.5721 15.7303 93.0314 15.0642C92.4987 14.398 92.232 13.536 92.232 12.478C92.232 11.4827 92.5186 10.6129 93.0901 9.86841C93.6625 9.12394 94.4148 8.54397 95.3471 8.12865C96.2802 7.71333 97.2867 7.50563 98.3682 7.50563C99.2697 7.50563 100.14 7.64669 100.978 7.92882C101.817 8.21094 102.549 8.62237 103.176 9.1631C103.811 9.70384 104.266 10.3543 104.54 11.1144L101.836 12.0901C101.726 11.7766 101.503 11.4906 101.166 11.232C100.829 10.9734 100.418 10.7697 99.9316 10.6207C99.446 10.464 98.9251 10.3856 98.3682 10.3856C97.812 10.3778 97.283 10.4679 96.7812 10.656C96.2875 10.8362 95.8842 11.0831 95.5705 11.3966C95.2575 11.7101 95.1003 12.0705 95.1003 12.478C95.1003 13.0031 95.2457 13.3988 95.5352 13.6653C95.8335 13.9318 96.2287 14.1276 96.7225 14.2531C97.2162 14.3706 97.765 14.4803 98.3682 14.5822C99.4658 14.7546 100.48 15.0445 101.413 15.4521C102.346 15.8596 103.094 16.4042 103.658 17.086C104.222 17.76 104.504 18.5868 104.504 19.5664C104.504 20.5617 104.222 21.4354 103.658 22.1878C103.094 22.9322 102.346 23.5122 101.413 23.9275C100.48 24.3428 99.4658 24.5505 98.3682 24.5505ZM114.036 20.7066L116.622 22.1055C116.081 22.8421 115.403 23.4338 114.588 23.8805C113.773 24.3272 112.884 24.5505 111.92 24.5505C110.838 24.5505 109.851 24.2723 108.957 23.7159C108.072 23.1595 107.362 22.415 106.83 21.4824C106.304 20.542 106.042 19.5037 106.042 18.3673C106.042 17.5053 106.195 16.702 106.501 15.9575C106.806 15.2052 107.226 14.5469 107.758 13.9827C108.299 13.4106 108.926 12.9639 109.639 12.6426C110.353 12.3213 111.112 12.1607 111.92 12.1607C112.884 12.1607 113.773 12.384 114.588 12.8307C115.403 13.2774 116.081 13.8769 116.622 14.6292L114.036 16.0163C113.761 15.7028 113.436 15.4599 113.06 15.2875C112.692 15.1151 112.311 15.0289 111.92 15.0289C111.355 15.0289 110.846 15.1856 110.391 15.4991C109.937 15.8047 109.577 16.2123 109.31 16.7216C109.043 17.2232 108.91 17.7717 108.91 18.3673C108.91 18.9551 109.043 19.5037 109.31 20.0131C109.577 20.5146 109.937 20.9182 110.391 21.2238C110.846 21.5295 111.355 21.6823 111.92 21.6823C112.327 21.6823 112.715 21.5961 113.083 21.4237C113.451 21.2435 113.769 21.0044 114.036 20.7066ZM123.537 24.5505C122.456 24.5505 121.468 24.2723 120.575 23.7159C119.689 23.1595 118.98 22.415 118.447 21.4824C117.922 20.542 117.66 19.5037 117.66 18.3673C117.66 17.5053 117.813 16.702 118.118 15.9575C118.424 15.2052 118.843 14.5469 119.376 13.9827C119.917 13.4106 120.543 12.9639 121.257 12.6426C121.969 12.3213 122.73 12.1607 123.537 12.1607C124.619 12.1607 125.602 12.4389 126.488 12.9953C127.381 13.5516 128.09 14.3001 128.616 15.2405C129.148 16.1809 129.415 17.2232 129.415 18.3673C129.415 19.2216 129.262 20.0209 128.956 20.7654C128.651 21.5099 128.228 22.1681 127.687 22.7402C127.153 23.3045 126.53 23.7473 125.818 24.0686C125.113 24.3899 124.352 24.5505 123.537 24.5505ZM123.537 21.6823C124.109 21.6823 124.622 21.5295 125.077 21.2238C125.531 20.9182 125.888 20.5146 126.147 20.0131C126.413 19.5115 126.547 18.963 126.547 18.3673C126.547 17.7561 126.409 17.1997 126.135 16.6981C125.869 16.1888 125.504 15.7851 125.042 15.4873C124.587 15.1817 124.085 15.0289 123.537 15.0289C122.973 15.0289 122.463 15.1817 122.009 15.4873C121.554 15.793 121.194 16.2005 120.928 16.7099C120.661 17.2192 120.528 17.7717 120.528 18.3673C120.528 18.9865 120.665 19.5468 120.939 20.0483C121.213 20.5499 121.578 20.9496 122.033 21.2473C122.495 21.5373 122.997 21.6823 123.537 21.6823ZM131.257 24.2449L131.245 12.4898H134.113L134.125 13.536C134.525 13.1128 135.002 12.7798 135.559 12.5368C136.115 12.2861 136.715 12.1607 137.358 12.1607C137.788 12.1607 138.219 12.2233 138.651 12.3487L137.522 15.2405C137.224 15.1229 136.926 15.0642 136.629 15.0642C136.166 15.0642 135.743 15.1778 135.359 15.4051C134.983 15.6245 134.681 15.9262 134.454 16.3102C134.234 16.6864 134.125 17.1057 134.125 17.568V24.2449H131.257ZM144.591 24.5505C143.509 24.5505 142.522 24.2723 141.628 23.7159C140.742 23.1595 140.033 22.4111 139.501 21.4707C138.975 20.5303 138.713 19.4919 138.713 18.3556C138.713 17.5014 138.866 16.702 139.172 15.9575C139.477 15.2052 139.896 14.5469 140.429 13.9827C140.97 13.4106 141.597 12.9639 142.31 12.6426C143.023 12.3213 143.783 12.1607 144.591 12.1607C145.508 12.1607 146.346 12.3566 147.106 12.7484C147.874 13.1324 148.524 13.6614 149.058 14.3353C149.59 15.0093 149.978 15.7773 150.221 16.6393C150.464 17.5014 150.519 18.4026 150.386 19.343H141.793C141.902 19.7819 142.082 20.1776 142.334 20.5303C142.584 20.8751 142.902 21.1533 143.286 21.3649C143.669 21.5686 144.104 21.6744 144.591 21.6823C145.092 21.6901 145.547 21.5726 145.954 21.3296C146.369 21.0789 146.714 20.7419 146.989 20.3187L149.916 21.0005C149.437 22.0428 148.724 22.897 147.776 23.5631C146.828 24.2214 145.766 24.5505 144.591 24.5505ZM141.699 17.1918H147.482C147.396 16.7216 147.212 16.2984 146.93 15.9223C146.655 15.5383 146.314 15.2326 145.907 15.0054C145.5 14.7781 145.061 14.6645 144.591 14.6645C144.121 14.6645 143.686 14.7781 143.286 15.0054C142.886 15.2248 142.545 15.5265 142.263 15.9105C141.988 16.2867 141.8 16.7138 141.699 17.1918ZM163.723 7.78775H167.027L173.01 24.2449H169.966L168.908 21.3296H161.855L160.797 24.2449H157.752L163.723 7.78775ZM162.901 18.4614H167.85L165.369 11.6787L162.901 18.4614ZM175.335 24.2449V7.78775H178.203V24.2449H175.335Z" fill="url(#paint0_radial_5_1023)"/>
<path d="M32.3266 13.1925V3.57764C32.3266 3.21335 32.1823 2.86398 31.9256 2.60639C31.6688 2.3488 31.3205 2.20408 30.9574 2.20408H3.57331C3.21017 2.20408 2.86191 2.3488 2.60513 2.60639C2.34836 2.86398 2.2041 3.21335 2.2041 3.57764V13.1925C2.2041 29.6752 17.2653 33.7959 17.2653 33.7959C17.2653 33.7959 32.3266 29.6752 32.3266 13.1925Z" stroke="url(#paint1_radial_5_1023)" stroke-width="3.67347" stroke-linecap="round" stroke-linejoin="round"/>
<path d="M10.2858 20.0466C10.2858 19.7683 10.3963 19.5013 10.5932 19.3045C10.79 19.1077 11.057 18.9971 11.3354 18.9971H13.4344C13.7128 18.9971 13.9798 19.1077 14.1766 19.3045C14.3735 19.5013 14.484 19.7683 14.484 20.0466V23.1953C14.484 23.4737 14.3735 23.7407 14.1766 23.9375C13.9798 24.1343 13.7128 24.2449 13.4344 24.2449H11.3354C11.057 24.2449 10.79 24.1343 10.5932 23.9375C10.3963 23.7407 10.2858 23.4737 10.2858 23.1953V20.0466ZM15.5336 15.8484C15.5336 15.57 15.6442 15.3031 15.841 15.1063C16.0378 14.9094 16.3047 14.7989 16.5831 14.7989H18.6823C18.9607 14.7989 19.2276 14.9094 19.4244 15.1063C19.6212 15.3031 19.7318 15.57 19.7318 15.8484V23.1953C19.7318 23.4737 19.6212 23.7407 19.4244 23.9375C19.2276 24.1343 18.9607 24.2449 18.6823 24.2449H16.5831C16.3047 24.2449 16.0378 24.1343 15.841 23.9375C15.6442 23.7407 15.5336 23.4737 15.5336 23.1953V15.8484ZM20.7814 10.6006C20.7814 10.3222 20.892 10.0552 21.0888 9.85841C21.2856 9.66159 21.5526 9.55102 21.831 9.55102H23.9301C24.2084 9.55102 24.4754 9.66159 24.6722 9.85841C24.8691 10.0552 24.9796 10.3222 24.9796 10.6006V23.1953C24.9796 23.4737 24.8691 23.7407 24.6722 23.9375C24.4754 24.1343 24.2084 24.2449 23.9301 24.2449H21.831C21.5526 24.2449 21.2856 24.1343 21.0888 23.9375C20.892 23.7407 20.7814 23.4737 20.7814 23.1953V10.6006Z" fill="url(#paint2_radial_5_1023)"/>
<defs>
<radialGradient id="paint0_radial_5_1023" cx="0" cy="0" r="1" gradientTransform="matrix(44.9473 46.6445 228.324 -9.19124 38.2219 -13.5427)" gradientUnits="userSpaceOnUse">
<stop stop-color="#1BA1E3"/>
<stop offset="0.3" stop-color="#5489D6"/>
<stop offset="0.545" stop-color="#9B72CB"/>
<stop offset="0.825" stop-color="#D96570"/>
<stop offset="1" stop-color="#F49C46"/>
</radialGradient>
<radialGradient id="paint1_radial_5_1023" cx="0" cy="0" r="1" gradientTransform="matrix(9.90771 52.782 50.3295 -10.4006 1.0744 -15.6146)" gradientUnits="userSpaceOnUse">
<stop stop-color="#1BA1E3"/>
<stop offset="0.3" stop-color="#5489D6"/>
<stop offset="0.545" stop-color="#9B72CB"/>
<stop offset="0.825" stop-color="#D96570"/>
<stop offset="1" stop-color="#F49C46"/>
</radialGradient>
<radialGradient id="paint2_radial_5_1023" cx="0" cy="0" r="1" gradientTransform="matrix(4.83304 24.5497 24.551 -4.83751 9.73467 1.26325)" gradientUnits="userSpaceOnUse">
<stop stop-color="#1BA1E3"/>
<stop offset="0.3" stop-color="#5489D6"/>
<stop offset="0.545" stop-color="#9B72CB"/>
<stop offset="0.825" stop-color="#D96570"/>
<stop offset="1" stop-color="#F49C46"/>
</radialGradient>
</defs>
</svg>
