<svg width="34" height="36" viewBox="0 0 34 36" fill="none" xmlns="http://www.w3.org/2000/svg">
<path d="M31.9592 12.8252V3.2103C31.9592 2.84601 31.815 2.49663 31.5582 2.23904C31.3015 1.98145 30.9532 1.83673 30.5901 1.83673H3.206C2.84286 1.83673 2.4946 1.98145 2.23782 2.23904C1.98105 2.49663 1.83679 2.84601 1.83679 3.2103V12.8252C1.83679 29.3079 16.898 33.4286 16.898 33.4286C16.898 33.4286 31.9592 29.3079 31.9592 12.8252Z" stroke="url(#paint0_radial_0_1)" stroke-width="3.67347" stroke-linecap="round" stroke-linejoin="round"/>
<path d="M9.91846 19.6793C9.91846 19.4009 10.029 19.134 10.2259 18.9372C10.4227 18.7403 10.6897 18.6297 10.968 18.6297H13.0671C13.3455 18.6297 13.6125 18.7403 13.8093 18.9372C14.0061 19.134 14.1167 19.4009 14.1167 19.6793V22.828C14.1167 23.1063 14.0061 23.3733 13.8093 23.5702C13.6125 23.767 13.3455 23.8775 13.0671 23.8775H10.968C10.6897 23.8775 10.4227 23.767 10.2259 23.5702C10.029 23.3733 9.91846 23.1063 9.91846 22.828V19.6793ZM15.1663 15.481C15.1663 15.2026 15.2769 14.9357 15.4737 14.7389C15.6705 14.5421 15.9374 14.4315 16.2158 14.4315H18.315C18.5934 14.4315 18.8603 14.5421 19.0571 14.7389C19.2539 14.9357 19.3645 15.2026 19.3645 15.481V22.828C19.3645 23.1063 19.2539 23.3733 19.0571 23.5702C18.8603 23.767 18.5934 23.8775 18.315 23.8775H16.2158C15.9374 23.8775 15.6705 23.767 15.4737 23.5702C15.2769 23.3733 15.1663 23.1063 15.1663 22.828V15.481ZM20.4141 10.2333C20.4141 9.95488 20.5246 9.68789 20.7215 9.49107C20.9183 9.29424 21.1853 9.18367 21.4637 9.18367H23.5628C23.8411 9.18367 24.1081 9.29424 24.3049 9.49107C24.5018 9.68789 24.6123 9.95488 24.6123 10.2333V22.828C24.6123 23.1063 24.5018 23.3733 24.3049 23.5702C24.1081 23.767 23.8411 23.8775 23.5628 23.8775H21.4637C21.1853 23.8775 20.9183 23.767 20.7215 23.5702C20.5246 23.3733 20.4141 23.1063 20.4141 22.828V10.2333Z" fill="url(#paint1_radial_0_1)"/>
<defs>
<radialGradient id="paint0_radial_0_1" cx="0" cy="0" r="1" gradientTransform="matrix(9.90771 52.782 50.3295 -10.4006 0.707089 -15.9819)" gradientUnits="userSpaceOnUse">
<stop stop-color="#1BA1E3"/>
<stop offset="0.3" stop-color="#5489D6"/>
<stop offset="0.545" stop-color="#9B72CB"/>
<stop offset="0.825" stop-color="#D96570"/>
<stop offset="1" stop-color="#F49C46"/>
</radialGradient>
<radialGradient id="paint1_radial_0_1" cx="0" cy="0" r="1" gradientTransform="matrix(4.83304 24.5497 24.551 -4.83751 9.36736 0.895906)" gradientUnits="userSpaceOnUse">
<stop stop-color="#1BA1E3"/>
<stop offset="0.3" stop-color="#5489D6"/>
<stop offset="0.545" stop-color="#9B72CB"/>
<stop offset="0.825" stop-color="#D96570"/>
<stop offset="1" stop-color="#F49C46"/>
</radialGradient>
</defs>
</svg>
