<svg width="30" height="30" viewBox="0 0 30 30" fill="none" xmlns="http://www.w3.org/2000/svg">
<path fill-rule="evenodd" clip-rule="evenodd" d="M10.7135 4.28571C10.9463 4.28576 11.1728 4.36164 11.3586 4.50185C11.5445 4.64207 11.6796 4.83901 11.7435 5.06286L12.9049 9.12857C13.155 10.0042 13.6242 10.8016 14.268 11.4455C14.9119 12.0894 15.7093 12.5585 16.5849 12.8086L20.6507 13.97C20.8744 14.0341 21.0711 14.1693 21.2112 14.3551C21.3513 14.5409 21.427 14.7673 21.427 15C21.427 15.2327 21.3513 15.4591 21.2112 15.6449C21.0711 15.8307 20.8744 15.9659 20.6507 16.03L16.5849 17.1914C15.7093 17.4415 14.9119 17.9106 14.268 18.5545C13.6242 19.1984 13.155 19.9958 12.9049 20.8714L11.7435 24.9371C11.6794 25.1608 11.5443 25.3576 11.3584 25.4977C11.1726 25.6378 10.9462 25.7135 10.7135 25.7135C10.4808 25.7135 10.2544 25.6378 10.0686 25.4977C9.88277 25.3576 9.7476 25.1608 9.68351 24.9371L8.52209 20.8714C8.27201 19.9958 7.80288 19.1984 7.15898 18.5545C6.51508 17.9106 5.71768 17.4415 4.84208 17.1914L0.776371 16.03C0.552663 15.9659 0.355901 15.8307 0.215832 15.6449C0.075762 15.4591 0 15.2327 0 15C0 14.7673 0.075762 14.5409 0.215832 14.3551C0.355901 14.1693 0.552663 14.0341 0.776371 13.97L4.84208 12.8086C5.71768 12.5585 6.51508 12.0894 7.15898 11.4455C7.80288 10.8016 8.27201 10.0042 8.52209 9.12857L9.68351 5.06286C9.74746 4.83901 9.88257 4.64207 10.0684 4.50185C10.2543 4.36164 10.4807 4.28576 10.7135 4.28571ZM23.5707 1.66266e-07C23.8097 -0.000132945 24.0419 0.0796627 24.2303 0.226695C24.4188 0.373727 24.5527 0.579551 24.6107 0.811429L24.9792 2.29143C25.3164 3.63429 26.3649 4.68286 27.7078 5.02L29.1878 5.38857C29.4201 5.44612 29.6265 5.57979 29.774 5.76828C29.9215 5.95678 30.0016 6.18923 30.0016 6.42857C30.0016 6.66791 29.9215 6.90037 29.774 7.08886C29.6265 7.27735 29.4201 7.41103 29.1878 7.46857L27.7078 7.83714C26.3649 8.17428 25.3164 9.22286 24.9792 10.5657L24.6107 12.0457C24.5531 12.278 24.4194 12.4844 24.2309 12.6319C24.0425 12.7794 23.81 12.8595 23.5707 12.8595C23.3313 12.8595 23.0989 12.7794 22.9104 12.6319C22.7219 12.4844 22.5882 12.278 22.5307 12.0457L22.1621 10.5657C21.9972 9.90633 21.6563 9.30414 21.1757 8.82353C20.6951 8.34293 20.0929 8.00198 19.4335 7.83714L17.9535 7.46857C17.7212 7.41103 17.5148 7.27735 17.3673 7.08886C17.2198 6.90037 17.1397 6.66791 17.1397 6.42857C17.1397 6.18923 17.2198 5.95678 17.3673 5.76828C17.5148 5.57979 17.7212 5.44612 17.9535 5.38857L19.4335 5.02C20.0929 4.85516 20.6951 4.51421 21.1757 4.03361C21.6563 3.553 21.9972 2.95081 22.1621 2.29143L22.5307 0.811429C22.5887 0.579551 22.7225 0.373727 22.911 0.226695C23.0994 0.0796627 23.3316 -0.000132945 23.5707 1.66266e-07ZM21.4278 19.2857C21.6528 19.2856 21.8722 19.3563 22.0547 19.4878C22.2373 19.6194 22.3738 19.8051 22.4449 20.0186L23.0078 21.7086C23.2221 22.3471 23.7221 22.85 24.3621 23.0629L26.0521 23.6271C26.2649 23.6986 26.4499 23.8351 26.5809 24.0173C26.712 24.1996 26.7825 24.4184 26.7825 24.6429C26.7825 24.8673 26.712 25.0861 26.5809 25.2684C26.4499 25.4506 26.2649 25.5871 26.0521 25.6586L24.3621 26.2229C23.7235 26.4371 23.2207 26.9371 23.0078 27.5771L22.4435 29.2671C22.3721 29.4799 22.2356 29.6649 22.0533 29.796C21.8711 29.9271 21.6523 29.9976 21.4278 29.9976C21.2033 29.9976 20.9845 29.9271 20.8023 29.796C20.62 29.6649 20.4835 29.4799 20.4121 29.2671L19.8478 27.5771C19.7426 27.2618 19.5654 26.9753 19.3304 26.7403C19.0953 26.5052 18.8088 26.3281 18.4935 26.2229L16.8035 25.6586C16.5907 25.5871 16.4057 25.4506 16.2747 25.2684C16.1436 25.0861 16.0731 24.8673 16.0731 24.6429C16.0731 24.4184 16.1436 24.1996 16.2747 24.0173C16.4057 23.8351 16.5907 23.6986 16.8035 23.6271L18.4935 23.0629C19.1321 22.8486 19.6349 22.3486 19.8478 21.7086L20.4121 20.0186C20.4831 19.8053 20.6194 19.6198 20.8017 19.4883C20.984 19.3567 21.203 19.2859 21.4278 19.2857Z" fill="white"/>
</svg>
