<svg width="24" height="24" viewBox="0 0 24 24" fill="none" xmlns="http://www.w3.org/2000/svg">
<path fill-rule="evenodd" clip-rule="evenodd" d="M11.9999 6.7499C11.9997 5.9299 12.1916 5.12126 12.5601 4.38876C12.9287 3.65626 13.4638 3.02028 14.1224 2.53179C14.781 2.0433 15.5449 1.71587 16.3528 1.57575C17.1607 1.43563 17.9903 1.48671 18.7749 1.7249C18.8989 1.76247 19.0111 1.83153 19.1005 1.92535C19.1899 2.01917 19.2534 2.13455 19.2849 2.26024C19.3165 2.38593 19.3149 2.51764 19.2804 2.64254C19.2458 2.76744 19.1795 2.88126 19.0879 2.9729L15.7679 6.2919C15.8309 6.7669 16.0439 7.2259 16.4089 7.5909C16.7739 7.9559 17.2329 8.1689 17.7089 8.2309L21.0269 4.9119C21.1186 4.8203 21.2324 4.754 21.3573 4.71947C21.4822 4.68494 21.6139 4.68336 21.7396 4.71488C21.8653 4.7464 21.9806 4.80995 22.0745 4.89934C22.1683 4.98872 22.2373 5.10089 22.2749 5.2249C22.5241 6.04576 22.5684 6.91518 22.4039 7.7571C22.2393 8.59902 21.871 9.3878 21.331 10.0544C20.7911 10.721 20.096 11.2452 19.3067 11.581C18.5173 11.9169 17.6576 12.0542 16.8029 11.9809C15.7849 11.8949 14.9329 12.0809 14.4939 12.6149L7.34392 21.2999C7.05116 21.6537 6.68775 21.9424 6.27696 22.1476C5.86617 22.3528 5.41706 22.47 4.95838 22.4916C4.49969 22.5132 4.04155 22.4388 3.61329 22.2731C3.18502 22.1075 2.79607 21.8542 2.47134 21.5295C2.14661 21.2049 1.89325 20.816 1.7275 20.3877C1.56174 19.9595 1.48723 19.5014 1.50875 19.0427C1.53027 18.584 1.64733 18.1349 1.85245 17.724C2.05757 17.3132 2.34622 16.9497 2.69992 16.6569L11.3839 9.5059C11.9169 9.0659 12.1039 8.2149 12.0179 7.1969C12.0057 7.04822 11.9997 6.89909 11.9999 6.7499ZM4.11692 19.1249C4.11692 18.926 4.19593 18.7352 4.33659 18.5946C4.47724 18.4539 4.668 18.3749 4.86692 18.3749H4.87492C5.07383 18.3749 5.26459 18.4539 5.40525 18.5946C5.5459 18.7352 5.62492 18.926 5.62492 19.1249V19.1329C5.62492 19.3318 5.5459 19.5226 5.40525 19.6632C5.26459 19.8039 5.07383 19.8829 4.87492 19.8829H4.86692C4.668 19.8829 4.47724 19.8039 4.33659 19.6632C4.19593 19.5226 4.11692 19.3318 4.11692 19.1329V19.1249Z" fill="white"/>
<path d="M10.076 8.63999L7.87497 6.43999V4.87399C7.87496 4.74451 7.84143 4.61724 7.77765 4.50456C7.71386 4.39188 7.62199 4.29763 7.51097 4.23099L3.76097 1.98099C3.61754 1.89502 3.4495 1.85944 3.28353 1.87991C3.11757 1.90039 2.9632 1.97574 2.84497 2.09399L2.09497 2.84399C1.97671 2.96223 1.90136 3.11659 1.88089 3.28255C1.86041 3.44852 1.89599 3.61657 1.98197 3.75999L4.23197 7.50999C4.29861 7.62101 4.39286 7.71288 4.50554 7.77667C4.61822 7.84046 4.74549 7.87399 4.87497 7.87399H6.43897L8.50097 9.93599L10.076 8.63899V8.63999Z" fill="white"/>
<path fill-rule="evenodd" clip-rule="evenodd" d="M12.5559 17.3291L16.7389 21.5111C17.0523 21.8245 17.4244 22.0731 17.8338 22.2427C18.2433 22.4123 18.6822 22.4996 19.1254 22.4996C19.5686 22.4996 20.0075 22.4123 20.417 22.2427C20.8264 22.0731 21.1985 21.8245 21.5119 21.5111C21.8253 21.1977 22.0739 20.8256 22.2435 20.4162C22.4131 20.0067 22.5004 19.5678 22.5004 19.1246C22.5004 18.6814 22.4131 18.2425 22.2435 17.833C22.0739 17.4236 21.8253 17.0515 21.5119 16.7381L18.2059 13.4331C17.6991 13.5049 17.1859 13.5194 16.6759 13.4761C16.2819 13.4421 15.9939 13.4701 15.8089 13.5181C15.7504 13.5305 15.6941 13.5517 15.6419 13.5811L12.5559 17.3291ZM15.9699 15.9691C16.1105 15.8287 16.3012 15.7498 16.4999 15.7498C16.6987 15.7498 16.8893 15.8287 17.0299 15.9691L18.9049 17.8451C18.9786 17.9138 19.0377 17.9966 19.0787 18.0886C19.1197 18.1806 19.1417 18.2799 19.1435 18.3806C19.1453 18.4813 19.1268 18.5813 19.089 18.6747C19.0513 18.7681 18.9952 18.8529 18.9239 18.9241C18.8527 18.9954 18.7679 19.0515 18.6745 19.0892C18.5811 19.1269 18.4811 19.1455 18.3804 19.1437C18.2797 19.1419 18.1804 19.1199 18.0884 19.0789C17.9964 19.0379 17.9136 18.9788 17.8449 18.9051L15.9699 17.0301C15.8295 16.8895 15.7506 16.6989 15.7506 16.5001C15.7506 16.3014 15.8295 16.1107 15.9699 15.9701V15.9691Z" fill="white"/>
</svg>
